<?xml version="1.0" encoding="utf-8" standalone="no"?>
<!DOCTYPE svg PUBLIC "-//W3C//DTD SVG 1.1//EN"
  "http://www.w3.org/Graphics/SVG/1.1/DTD/svg11.dtd">
<svg xmlns:xlink="http://www.w3.org/1999/xlink" width="1432.8pt" height="712.1955pt" viewBox="0 0 1432.8 712.1955" xmlns="http://www.w3.org/2000/svg" version="1.1">
 <metadata>
  <rdf:RDF xmlns:dc="http://purl.org/dc/elements/1.1/" xmlns:cc="http://creativecommons.org/ns#" xmlns:rdf="http://www.w3.org/1999/02/22-rdf-syntax-ns#">
   <cc:Work>
    <dc:type rdf:resource="http://purl.org/dc/dcmitype/StillImage"/>
    <dc:date>2025-11-20T23:10:12.736318</dc:date>
    <dc:format>image/svg+xml</dc:format>
    <dc:creator>
     <cc:Agent>
      <dc:title>Matplotlib v3.10.7, https://matplotlib.org/</dc:title>
     </cc:Agent>
    </dc:creator>
   </cc:Work>
  </rdf:RDF>
 </metadata>
 <defs>
  <style type="text/css">*{stroke-linejoin: round; stroke-linecap: butt}</style>
 </defs>
 <g id="figure_1">
  <g id="patch_1">
   <path d="M 0 712.1955 
L 1432.8 712.1955 
L 1432.8 0 
L 0 0 
z
" style="fill: #ffffff"/>
  </g>
  <g id="axes_1">
   <g id="LineCollection_1">
    <path d="M 972.928521 514.627714 
L 1184.498435 601.179043 
" clip-path="url(#p35ffcb3235)" style="fill: none; stroke: #008000; stroke-opacity: 0.9; stroke-width: 1.8"/>
    <path d="M 367.069221 341.525057 
L 886.377192 139.571957 
" clip-path="url(#p35ffcb3235)" style="fill: none; stroke: #008000; stroke-opacity: 0.9; stroke-width: 1.8"/>
    <path d="M 367.069221 341.525057 
L 453.62055 312.674614 
" clip-path="url(#p35ffcb3235)" style="fill: none; stroke: #008000; stroke-opacity: 0.9; stroke-width: 1.8"/>
    <path d="M 367.069221 341.525057 
L 453.62055 139.571957 
" clip-path="url(#p35ffcb3235)" style="fill: none; stroke: #008000; stroke-opacity: 0.9; stroke-width: 1.8"/>
    <path d="M 367.069221 341.525057 
L 155.499307 553.094971 
" clip-path="url(#p35ffcb3235)" style="fill: none; stroke: #008000; stroke-opacity: 0.9; stroke-width: 1.8"/>
    <path d="M 367.069221 341.525057 
L 367.069221 129.955143 
" clip-path="url(#p35ffcb3235)" style="fill: none; stroke: #008000; stroke-opacity: 0.9; stroke-width: 1.8"/>
    <path d="M 367.069221 341.525057 
L 549.788693 341.525057 
" clip-path="url(#p35ffcb3235)" style="fill: none; stroke: #008000; stroke-opacity: 0.9; stroke-width: 1.8"/>
    <path d="M 367.069221 341.525057 
L 578.639135 553.094971 
" clip-path="url(#p35ffcb3235)" style="fill: none; stroke: #008000; stroke-opacity: 0.9; stroke-width: 1.8"/>
    <path d="M 367.069221 341.525057 
L 338.218778 254.973729 
" clip-path="url(#p35ffcb3235)" style="fill: none; stroke: #008000; stroke-opacity: 0.9; stroke-width: 1.8"/>
    <path d="M 1184.498435 601.179043 
L 549.788693 466.543643 
" clip-path="url(#p35ffcb3235)" style="fill: none; stroke: #008000; stroke-opacity: 0.9; stroke-width: 1.8"/>
    <path d="M 549.788693 466.543643 
L 626.723207 254.973729 
" clip-path="url(#p35ffcb3235)" style="fill: none; stroke: #008000; stroke-opacity: 0.9; stroke-width: 1.8"/>
    <path d="M 549.788693 466.543643 
L 674.807278 399.225943 
" clip-path="url(#p35ffcb3235)" style="fill: none; stroke: #008000; stroke-opacity: 0.9; stroke-width: 1.8"/>
    <path d="M 549.788693 466.543643 
L 338.218778 254.973729 
" clip-path="url(#p35ffcb3235)" style="fill: none; stroke: #008000; stroke-opacity: 0.9; stroke-width: 1.8"/>
    <path d="M 549.788693 466.543643 
L 761.358607 437.6932 
" clip-path="url(#p35ffcb3235)" style="fill: none; stroke: #008000; stroke-opacity: 0.9; stroke-width: 1.8"/>
    <path d="M 886.377192 139.571957 
L 761.358607 351.141871 
" clip-path="url(#p35ffcb3235)" style="fill: none; stroke: #008000; stroke-opacity: 0.9; stroke-width: 1.8"/>
    <path d="M 799.825864 610.795857 
L 674.807278 399.225943 
" clip-path="url(#p35ffcb3235)" style="fill: none; stroke: #008000; stroke-opacity: 0.9; stroke-width: 1.8"/>
    <path d="M 540.171878 139.571957 
L 549.788693 341.525057 
" clip-path="url(#p35ffcb3235)" style="fill: none; stroke: #008000; stroke-opacity: 0.9; stroke-width: 1.8"/>
    <path d="M 713.274535 254.973729 
L 549.788693 341.525057 
" clip-path="url(#p35ffcb3235)" style="fill: none; stroke: #008000; stroke-opacity: 0.9; stroke-width: 1.8"/>
    <path d="M 453.62055 139.571957 
L 549.788693 341.525057 
" clip-path="url(#p35ffcb3235)" style="fill: none; stroke: #008000; stroke-opacity: 0.9; stroke-width: 1.8"/>
    <path d="M 453.62055 139.571957 
L 338.218778 254.973729 
" clip-path="url(#p35ffcb3235)" style="fill: none; stroke: #008000; stroke-opacity: 0.9; stroke-width: 1.8"/>
    <path d="M 338.218778 514.627714 
L 549.788693 341.525057 
" clip-path="url(#p35ffcb3235)" style="fill: none; stroke: #008000; stroke-opacity: 0.9; stroke-width: 1.8"/>
    <path d="M 761.358607 437.6932 
L 549.788693 341.525057 
" clip-path="url(#p35ffcb3235)" style="fill: none; stroke: #008000; stroke-opacity: 0.9; stroke-width: 1.8"/>
    <path d="M 761.358607 524.244528 
L 549.788693 341.525057 
" clip-path="url(#p35ffcb3235)" style="fill: none; stroke: #008000; stroke-opacity: 0.9; stroke-width: 1.8"/>
    <path d="M 886.377192 610.795857 
L 674.807278 399.225943 
" clip-path="url(#p35ffcb3235)" style="fill: none; stroke: #008000; stroke-opacity: 0.9; stroke-width: 1.8"/>
    <path d="M 549.788693 341.525057 
L 674.807278 399.225943 
" clip-path="url(#p35ffcb3235)" style="fill: none; stroke: #008000; stroke-opacity: 0.9; stroke-width: 1.8"/>
    <path d="M 549.788693 341.525057 
L 463.237364 428.076386 
" clip-path="url(#p35ffcb3235)" style="fill: none; stroke: #008000; stroke-opacity: 0.9; stroke-width: 1.8"/>
   </g>
   <g id="PathCollection_1">
    <defs>
     <path id="C0_0_b0935fb6f0" d="M 0 13.228757 
C 3.508307 13.228757 6.873396 11.834891 9.354143 9.354143 
C 11.834891 6.873396 13.228757 3.508307 13.228757 -0 
C 13.228757 -3.508307 11.834891 -6.873396 9.354143 -9.354143 
C 6.873396 -11.834891 3.508307 -13.228757 0 -13.228757 
C -3.508307 -13.228757 -6.873396 -11.834891 -9.354143 -9.354143 
C -11.834891 -6.873396 -13.228757 -3.508307 -13.228757 0 
C -13.228757 3.508307 -11.834891 6.873396 -9.354143 9.354143 
C -6.873396 11.834891 -3.508307 13.228757 0 13.228757 
z
"/>
    </defs>
    <g clip-path="url(#p35ffcb3235)">
     <use xlink:href="#C0_0_b0935fb6f0" x="972.928521" y="514.627714" style="fill: #b8e6b8; stroke: #2d7a41; stroke-width: 1.2"/>
    </g>
    <g clip-path="url(#p35ffcb3235)">
     <use xlink:href="#C0_0_b0935fb6f0" x="367.069221" y="341.525057" style="fill: #b8e6b8; stroke: #1f3d1f; stroke-width: 1.2"/>
    </g>
    <g clip-path="url(#p35ffcb3235)">
     <use xlink:href="#C0_0_b0935fb6f0" x="1184.498435" y="601.179043" style="fill: #b8e6b8; stroke: #2d7a41; stroke-width: 1.2"/>
    </g>
    <g clip-path="url(#p35ffcb3235)">
     <use xlink:href="#C0_0_b0935fb6f0" x="549.788693" y="466.543643" style="fill: #b8e6b8; stroke: #2d7a41; stroke-width: 1.2"/>
    </g>
    <g clip-path="url(#p35ffcb3235)">
     <use xlink:href="#C0_0_b0935fb6f0" x="626.723207" y="254.973729" style="fill: #b8e6b8; stroke: #2d7a41; stroke-width: 1.2"/>
    </g>
    <g clip-path="url(#p35ffcb3235)">
     <use xlink:href="#C0_0_b0935fb6f0" x="578.639135" y="553.094971" style="fill: #b8e6b8; stroke: #2d7a41; stroke-width: 1.2"/>
    </g>
    <g clip-path="url(#p35ffcb3235)">
     <use xlink:href="#C0_0_b0935fb6f0" x="886.377192" y="139.571957" style="fill: #b8e6b8; stroke: #2d7a41; stroke-width: 1.2"/>
    </g>
    <g clip-path="url(#p35ffcb3235)">
     <use xlink:href="#C0_0_b0935fb6f0" x="799.825864" y="610.795857" style="fill: #b8e6b8; stroke: #2d7a41; stroke-width: 1.2"/>
    </g>
    <g clip-path="url(#p35ffcb3235)">
     <use xlink:href="#C0_0_b0935fb6f0" x="540.171878" y="139.571957" style="fill: #b8e6b8; stroke: #2d7a41; stroke-width: 1.2"/>
    </g>
    <g clip-path="url(#p35ffcb3235)">
     <use xlink:href="#C0_0_b0935fb6f0" x="713.274535" y="254.973729" style="fill: #b8e6b8; stroke: #2d7a41; stroke-width: 1.2"/>
    </g>
    <g clip-path="url(#p35ffcb3235)">
     <use xlink:href="#C0_0_b0935fb6f0" x="453.62055" y="139.571957" style="fill: #b8e6b8; stroke: #2d7a41; stroke-width: 1.2"/>
    </g>
    <g clip-path="url(#p35ffcb3235)">
     <use xlink:href="#C0_0_b0935fb6f0" x="338.218778" y="514.627714" style="fill: #b8e6b8; stroke: #2d7a41; stroke-width: 1.2"/>
    </g>
    <g clip-path="url(#p35ffcb3235)">
     <use xlink:href="#C0_0_b0935fb6f0" x="761.358607" y="437.6932" style="fill: #b8e6b8; stroke: #2d7a41; stroke-width: 1.2"/>
    </g>
    <g clip-path="url(#p35ffcb3235)">
     <use xlink:href="#C0_0_b0935fb6f0" x="761.358607" y="524.244528" style="fill: #b8e6b8; stroke: #2d7a41; stroke-width: 1.2"/>
    </g>
    <g clip-path="url(#p35ffcb3235)">
     <use xlink:href="#C0_0_b0935fb6f0" x="886.377192" y="610.795857" style="fill: #b8e6b8; stroke: #2d7a41; stroke-width: 1.2"/>
    </g>
    <g clip-path="url(#p35ffcb3235)">
     <use xlink:href="#C0_0_b0935fb6f0" x="549.788693" y="341.525057" style="fill: #b8e6b8; stroke: #2d7a41; stroke-width: 1.2"/>
    </g>
    <g clip-path="url(#p35ffcb3235)">
     <use xlink:href="#C0_0_b0935fb6f0" x="453.62055" y="312.674614" style="fill: #b8e6b8; stroke: #2d7a41; stroke-width: 1.2"/>
    </g>
    <g clip-path="url(#p35ffcb3235)">
     <use xlink:href="#C0_0_b0935fb6f0" x="367.069221" y="129.955143" style="fill: #b8e6b8; stroke: #2d7a41; stroke-width: 1.2"/>
    </g>
    <g clip-path="url(#p35ffcb3235)">
     <use xlink:href="#C0_0_b0935fb6f0" x="761.358607" y="351.141871" style="fill: #b8e6b8; stroke: #2d7a41; stroke-width: 1.2"/>
    </g>
    <g clip-path="url(#p35ffcb3235)">
     <use xlink:href="#C0_0_b0935fb6f0" x="338.218778" y="254.973729" style="fill: #b8e6b8; stroke: #2d7a41; stroke-width: 1.2"/>
    </g>
    <g clip-path="url(#p35ffcb3235)">
     <use xlink:href="#C0_0_b0935fb6f0" x="463.237364" y="428.076386" style="fill: #b8e6b8; stroke: #2d7a41; stroke-width: 1.2"/>
    </g>
    <g clip-path="url(#p35ffcb3235)">
     <use xlink:href="#C0_0_b0935fb6f0" x="674.807278" y="399.225943" style="fill: #b8e6b8; stroke: #2d7a41; stroke-width: 1.2"/>
    </g>
    <g clip-path="url(#p35ffcb3235)">
     <use xlink:href="#C0_0_b0935fb6f0" x="155.499307" y="553.094971" style="fill: #b8e6b8; stroke: #2d7a41; stroke-width: 1.2"/>
    </g>
   </g>
   <g id="PathCollection_2">
    <defs>
     <path id="C1_0_8304f23c56" d="M 0 9.354143 
C 2.480748 9.354143 4.860225 8.368532 6.614378 6.614378 
C 8.368532 4.860225 9.354143 2.480748 9.354143 -0 
C 9.354143 -2.480748 8.368532 -4.860225 6.614378 -6.614378 
C 4.860225 -8.368532 2.480748 -9.354143 0 -9.354143 
C -2.480748 -9.354143 -4.860225 -8.368532 -6.614378 -6.614378 
C -8.368532 -4.860225 -9.354143 -2.480748 -9.354143 0 
C -9.354143 2.480748 -8.368532 4.860225 -6.614378 6.614378 
C -4.860225 8.368532 -2.480748 9.354143 0 9.354143 
z
"/>
    </defs>
    <g clip-path="url(#p35ffcb3235)">
     <use xlink:href="#C1_0_8304f23c56" x="1328.750649" y="687.730371" style="fill: #cfe9cf; stroke: #2d7a41; stroke-width: 0.8"/>
    </g>
    <g clip-path="url(#p35ffcb3235)">
     <use xlink:href="#C1_0_8304f23c56" x="540.171878" y="53.020629" style="fill: #cfe9cf; stroke: #2d7a41; stroke-width: 0.8"/>
    </g>
    <g clip-path="url(#p35ffcb3235)">
     <use xlink:href="#C1_0_8304f23c56" x="424.770107" y="226.123286" style="fill: #cfe9cf; stroke: #2d7a41; stroke-width: 0.8"/>
    </g>
    <g clip-path="url(#p35ffcb3235)">
     <use xlink:href="#C1_0_8304f23c56" x="674.807278" y="168.4224" style="fill: #cfe9cf; stroke: #2d7a41; stroke-width: 0.8"/>
    </g>
   </g>
   <g id="text_1">
    <g id="patch_2">
     <path d="M 926.254771 519.458964 
L 1019.602271 519.458964 
L 1019.602271 509.796464 
L 926.254771 509.796464 
z
" clip-path="url(#p35ffcb3235)" style="fill: #ffffff; opacity: 0.75"/>
    </g>
    <g clip-path="url(#p35ffcb3235)">
     <!-- cantón de la Ortodoxia -->
     <g transform="translate(927.214771 516.835214) scale(0.08 -0.08)">
      <defs>
       <path id="DejaVuSans-63" d="M 3122 3366 
L 3122 2828 
Q 2878 2963 2633 3030 
Q 2388 3097 2138 3097 
Q 1578 3097 1268 2742 
Q 959 2388 959 1747 
Q 959 1106 1268 751 
Q 1578 397 2138 397 
Q 2388 397 2633 464 
Q 2878 531 3122 666 
L 3122 134 
Q 2881 22 2623 -34 
Q 2366 -91 2075 -91 
Q 1284 -91 818 406 
Q 353 903 353 1747 
Q 353 2603 823 3093 
Q 1294 3584 2113 3584 
Q 2378 3584 2631 3529 
Q 2884 3475 3122 3366 
z
" transform="scale(0.015625)"/>
       <path id="DejaVuSans-61" d="M 2194 1759 
Q 1497 1759 1228 1600 
Q 959 1441 959 1056 
Q 959 750 1161 570 
Q 1363 391 1709 391 
Q 2188 391 2477 730 
Q 2766 1069 2766 1631 
L 2766 1759 
L 2194 1759 
z
M 3341 1997 
L 3341 0 
L 2766 0 
L 2766 531 
Q 2569 213 2275 61 
Q 1981 -91 1556 -91 
Q 1019 -91 701 211 
Q 384 513 384 1019 
Q 384 1609 779 1909 
Q 1175 2209 1959 2209 
L 2766 2209 
L 2766 2266 
Q 2766 2663 2505 2880 
Q 2244 3097 1772 3097 
Q 1472 3097 1187 3025 
Q 903 2953 641 2809 
L 641 3341 
Q 956 3463 1253 3523 
Q 1550 3584 1831 3584 
Q 2591 3584 2966 3190 
Q 3341 2797 3341 1997 
z
" transform="scale(0.015625)"/>
       <path id="DejaVuSans-6e" d="M 3513 2113 
L 3513 0 
L 2938 0 
L 2938 2094 
Q 2938 2591 2744 2837 
Q 2550 3084 2163 3084 
Q 1697 3084 1428 2787 
Q 1159 2491 1159 1978 
L 1159 0 
L 581 0 
L 581 3500 
L 1159 3500 
L 1159 2956 
Q 1366 3272 1645 3428 
Q 1925 3584 2291 3584 
Q 2894 3584 3203 3211 
Q 3513 2838 3513 2113 
z
" transform="scale(0.015625)"/>
       <path id="DejaVuSans-74" d="M 1172 4494 
L 1172 3500 
L 2356 3500 
L 2356 3053 
L 1172 3053 
L 1172 1153 
Q 1172 725 1289 603 
Q 1406 481 1766 481 
L 2356 481 
L 2356 0 
L 1766 0 
Q 1100 0 847 248 
Q 594 497 594 1153 
L 594 3053 
L 172 3053 
L 172 3500 
L 594 3500 
L 594 4494 
L 1172 4494 
z
" transform="scale(0.015625)"/>
       <path id="DejaVuSans-f3" d="M 1959 3097 
Q 1497 3097 1228 2736 
Q 959 2375 959 1747 
Q 959 1119 1226 758 
Q 1494 397 1959 397 
Q 2419 397 2687 759 
Q 2956 1122 2956 1747 
Q 2956 2369 2687 2733 
Q 2419 3097 1959 3097 
z
M 1959 3584 
Q 2709 3584 3137 3096 
Q 3566 2609 3566 1747 
Q 3566 888 3137 398 
Q 2709 -91 1959 -91 
Q 1206 -91 779 398 
Q 353 888 353 1747 
Q 353 2609 779 3096 
Q 1206 3584 1959 3584 
z
M 2394 5119 
L 3016 5119 
L 1998 3944 
L 1519 3944 
L 2394 5119 
z
" transform="scale(0.015625)"/>
       <path id="DejaVuSans-20" transform="scale(0.015625)"/>
       <path id="DejaVuSans-64" d="M 2906 2969 
L 2906 4863 
L 3481 4863 
L 3481 0 
L 2906 0 
L 2906 525 
Q 2725 213 2448 61 
Q 2172 -91 1784 -91 
Q 1150 -91 751 415 
Q 353 922 353 1747 
Q 353 2572 751 3078 
Q 1150 3584 1784 3584 
Q 2172 3584 2448 3432 
Q 2725 3281 2906 2969 
z
M 947 1747 
Q 947 1113 1208 752 
Q 1469 391 1925 391 
Q 2381 391 2643 752 
Q 2906 1113 2906 1747 
Q 2906 2381 2643 2742 
Q 2381 3103 1925 3103 
Q 1469 3103 1208 2742 
Q 947 2381 947 1747 
z
" transform="scale(0.015625)"/>
       <path id="DejaVuSans-65" d="M 3597 1894 
L 3597 1613 
L 953 1613 
Q 991 1019 1311 708 
Q 1631 397 2203 397 
Q 2534 397 2845 478 
Q 3156 559 3463 722 
L 3463 178 
Q 3153 47 2828 -22 
Q 2503 -91 2169 -91 
Q 1331 -91 842 396 
Q 353 884 353 1716 
Q 353 2575 817 3079 
Q 1281 3584 2069 3584 
Q 2775 3584 3186 3129 
Q 3597 2675 3597 1894 
z
M 3022 2063 
Q 3016 2534 2758 2815 
Q 2500 3097 2075 3097 
Q 1594 3097 1305 2825 
Q 1016 2553 972 2059 
L 3022 2063 
z
" transform="scale(0.015625)"/>
       <path id="DejaVuSans-6c" d="M 603 4863 
L 1178 4863 
L 1178 0 
L 603 0 
L 603 4863 
z
" transform="scale(0.015625)"/>
       <path id="DejaVuSans-4f" d="M 2522 4238 
Q 1834 4238 1429 3725 
Q 1025 3213 1025 2328 
Q 1025 1447 1429 934 
Q 1834 422 2522 422 
Q 3209 422 3611 934 
Q 4013 1447 4013 2328 
Q 4013 3213 3611 3725 
Q 3209 4238 2522 4238 
z
M 2522 4750 
Q 3503 4750 4090 4092 
Q 4678 3434 4678 2328 
Q 4678 1225 4090 567 
Q 3503 -91 2522 -91 
Q 1538 -91 948 565 
Q 359 1222 359 2328 
Q 359 3434 948 4092 
Q 1538 4750 2522 4750 
z
" transform="scale(0.015625)"/>
       <path id="DejaVuSans-72" d="M 2631 2963 
Q 2534 3019 2420 3045 
Q 2306 3072 2169 3072 
Q 1681 3072 1420 2755 
Q 1159 2438 1159 1844 
L 1159 0 
L 581 0 
L 581 3500 
L 1159 3500 
L 1159 2956 
Q 1341 3275 1631 3429 
Q 1922 3584 2338 3584 
Q 2397 3584 2469 3576 
Q 2541 3569 2628 3553 
L 2631 2963 
z
" transform="scale(0.015625)"/>
       <path id="DejaVuSans-6f" d="M 1959 3097 
Q 1497 3097 1228 2736 
Q 959 2375 959 1747 
Q 959 1119 1226 758 
Q 1494 397 1959 397 
Q 2419 397 2687 759 
Q 2956 1122 2956 1747 
Q 2956 2369 2687 2733 
Q 2419 3097 1959 3097 
z
M 1959 3584 
Q 2709 3584 3137 3096 
Q 3566 2609 3566 1747 
Q 3566 888 3137 398 
Q 2709 -91 1959 -91 
Q 1206 -91 779 398 
Q 353 888 353 1747 
Q 353 2609 779 3096 
Q 1206 3584 1959 3584 
z
" transform="scale(0.015625)"/>
       <path id="DejaVuSans-78" d="M 3513 3500 
L 2247 1797 
L 3578 0 
L 2900 0 
L 1881 1375 
L 863 0 
L 184 0 
L 1544 1831 
L 300 3500 
L 978 3500 
L 1906 2253 
L 2834 3500 
L 3513 3500 
z
" transform="scale(0.015625)"/>
       <path id="DejaVuSans-69" d="M 603 3500 
L 1178 3500 
L 1178 0 
L 603 0 
L 603 3500 
z
M 603 4863 
L 1178 4863 
L 1178 4134 
L 603 4134 
L 603 4863 
z
" transform="scale(0.015625)"/>
      </defs>
      <use xlink:href="#DejaVuSans-63"/>
      <use xlink:href="#DejaVuSans-61" transform="translate(54.980469 0)"/>
      <use xlink:href="#DejaVuSans-6e" transform="translate(116.259766 0)"/>
      <use xlink:href="#DejaVuSans-74" transform="translate(179.638672 0)"/>
      <use xlink:href="#DejaVuSans-f3" transform="translate(218.847656 0)"/>
      <use xlink:href="#DejaVuSans-6e" transform="translate(280.029297 0)"/>
      <use xlink:href="#DejaVuSans-20" transform="translate(343.408203 0)"/>
      <use xlink:href="#DejaVuSans-64" transform="translate(375.195312 0)"/>
      <use xlink:href="#DejaVuSans-65" transform="translate(438.671875 0)"/>
      <use xlink:href="#DejaVuSans-20" transform="translate(500.195312 0)"/>
      <use xlink:href="#DejaVuSans-6c" transform="translate(531.982422 0)"/>
      <use xlink:href="#DejaVuSans-61" transform="translate(559.765625 0)"/>
      <use xlink:href="#DejaVuSans-20" transform="translate(621.044922 0)"/>
      <use xlink:href="#DejaVuSans-4f" transform="translate(652.832031 0)"/>
      <use xlink:href="#DejaVuSans-72" transform="translate(731.542969 0)"/>
      <use xlink:href="#DejaVuSans-74" transform="translate(772.65625 0)"/>
      <use xlink:href="#DejaVuSans-6f" transform="translate(811.865234 0)"/>
      <use xlink:href="#DejaVuSans-64" transform="translate(873.046875 0)"/>
      <use xlink:href="#DejaVuSans-6f" transform="translate(936.523438 0)"/>
      <use xlink:href="#DejaVuSans-78" transform="translate(994.580078 0)"/>
      <use xlink:href="#DejaVuSans-69" transform="translate(1053.759766 0)"/>
      <use xlink:href="#DejaVuSans-61" transform="translate(1081.542969 0)"/>
     </g>
    </g>
   </g>
   <g id="text_2">
    <g id="patch_3">
     <path d="M 341.435471 346.356307 
L 392.702971 346.356307 
L 392.702971 336.693807 
L 341.435471 336.693807 
z
" clip-path="url(#p35ffcb3235)" style="fill: #ffffff; opacity: 0.75"/>
    </g>
    <g clip-path="url(#p35ffcb3235)">
     <!-- Kredik Shaw -->
     <g transform="translate(342.395471 343.732557) scale(0.08 -0.08)">
      <defs>
       <path id="DejaVuSans-4b" d="M 628 4666 
L 1259 4666 
L 1259 2694 
L 3353 4666 
L 4166 4666 
L 1850 2491 
L 4331 0 
L 3500 0 
L 1259 2247 
L 1259 0 
L 628 0 
L 628 4666 
z
" transform="scale(0.015625)"/>
       <path id="DejaVuSans-6b" d="M 581 4863 
L 1159 4863 
L 1159 1991 
L 2875 3500 
L 3609 3500 
L 1753 1863 
L 3688 0 
L 2938 0 
L 1159 1709 
L 1159 0 
L 581 0 
L 581 4863 
z
" transform="scale(0.015625)"/>
       <path id="DejaVuSans-53" d="M 3425 4513 
L 3425 3897 
Q 3066 4069 2747 4153 
Q 2428 4238 2131 4238 
Q 1616 4238 1336 4038 
Q 1056 3838 1056 3469 
Q 1056 3159 1242 3001 
Q 1428 2844 1947 2747 
L 2328 2669 
Q 3034 2534 3370 2195 
Q 3706 1856 3706 1288 
Q 3706 609 3251 259 
Q 2797 -91 1919 -91 
Q 1588 -91 1214 -16 
Q 841 59 441 206 
L 441 856 
Q 825 641 1194 531 
Q 1563 422 1919 422 
Q 2459 422 2753 634 
Q 3047 847 3047 1241 
Q 3047 1584 2836 1778 
Q 2625 1972 2144 2069 
L 1759 2144 
Q 1053 2284 737 2584 
Q 422 2884 422 3419 
Q 422 4038 858 4394 
Q 1294 4750 2059 4750 
Q 2388 4750 2728 4690 
Q 3069 4631 3425 4513 
z
" transform="scale(0.015625)"/>
       <path id="DejaVuSans-68" d="M 3513 2113 
L 3513 0 
L 2938 0 
L 2938 2094 
Q 2938 2591 2744 2837 
Q 2550 3084 2163 3084 
Q 1697 3084 1428 2787 
Q 1159 2491 1159 1978 
L 1159 0 
L 581 0 
L 581 4863 
L 1159 4863 
L 1159 2956 
Q 1366 3272 1645 3428 
Q 1925 3584 2291 3584 
Q 2894 3584 3203 3211 
Q 3513 2838 3513 2113 
z
" transform="scale(0.015625)"/>
       <path id="DejaVuSans-77" d="M 269 3500 
L 844 3500 
L 1563 769 
L 2278 3500 
L 2956 3500 
L 3675 769 
L 4391 3500 
L 4966 3500 
L 4050 0 
L 3372 0 
L 2619 2869 
L 1863 0 
L 1184 0 
L 269 3500 
z
" transform="scale(0.015625)"/>
      </defs>
      <use xlink:href="#DejaVuSans-4b"/>
      <use xlink:href="#DejaVuSans-72" transform="translate(65.576172 0)"/>
      <use xlink:href="#DejaVuSans-65" transform="translate(104.439453 0)"/>
      <use xlink:href="#DejaVuSans-64" transform="translate(165.962891 0)"/>
      <use xlink:href="#DejaVuSans-69" transform="translate(229.439453 0)"/>
      <use xlink:href="#DejaVuSans-6b" transform="translate(257.222656 0)"/>
      <use xlink:href="#DejaVuSans-20" transform="translate(315.132812 0)"/>
      <use xlink:href="#DejaVuSans-53" transform="translate(346.919922 0)"/>
      <use xlink:href="#DejaVuSans-68" transform="translate(410.396484 0)"/>
      <use xlink:href="#DejaVuSans-61" transform="translate(473.775391 0)"/>
      <use xlink:href="#DejaVuSans-77" transform="translate(535.054688 0)"/>
     </g>
    </g>
   </g>
   <g id="text_3">
    <g id="patch_4">
     <path d="M 1164.013435 606.010293 
L 1204.983435 606.010293 
L 1204.983435 596.347793 
L 1164.013435 596.347793 
z
" clip-path="url(#p35ffcb3235)" style="fill: #ffffff; opacity: 0.75"/>
    </g>
    <g clip-path="url(#p35ffcb3235)">
     <!-- Ministerio -->
     <g transform="translate(1164.973435 603.386543) scale(0.08 -0.08)">
      <defs>
       <path id="DejaVuSans-4d" d="M 628 4666 
L 1569 4666 
L 2759 1491 
L 3956 4666 
L 4897 4666 
L 4897 0 
L 4281 0 
L 4281 4097 
L 3078 897 
L 2444 897 
L 1241 4097 
L 1241 0 
L 628 0 
L 628 4666 
z
" transform="scale(0.015625)"/>
       <path id="DejaVuSans-73" d="M 2834 3397 
L 2834 2853 
Q 2591 2978 2328 3040 
Q 2066 3103 1784 3103 
Q 1356 3103 1142 2972 
Q 928 2841 928 2578 
Q 928 2378 1081 2264 
Q 1234 2150 1697 2047 
L 1894 2003 
Q 2506 1872 2764 1633 
Q 3022 1394 3022 966 
Q 3022 478 2636 193 
Q 2250 -91 1575 -91 
Q 1294 -91 989 -36 
Q 684 19 347 128 
L 347 722 
Q 666 556 975 473 
Q 1284 391 1588 391 
Q 1994 391 2212 530 
Q 2431 669 2431 922 
Q 2431 1156 2273 1281 
Q 2116 1406 1581 1522 
L 1381 1569 
Q 847 1681 609 1914 
Q 372 2147 372 2553 
Q 372 3047 722 3315 
Q 1072 3584 1716 3584 
Q 2034 3584 2315 3537 
Q 2597 3491 2834 3397 
z
" transform="scale(0.015625)"/>
      </defs>
      <use xlink:href="#DejaVuSans-4d"/>
      <use xlink:href="#DejaVuSans-69" transform="translate(86.279297 0)"/>
      <use xlink:href="#DejaVuSans-6e" transform="translate(114.0625 0)"/>
      <use xlink:href="#DejaVuSans-69" transform="translate(177.441406 0)"/>
      <use xlink:href="#DejaVuSans-73" transform="translate(205.224609 0)"/>
      <use xlink:href="#DejaVuSans-74" transform="translate(257.324219 0)"/>
      <use xlink:href="#DejaVuSans-65" transform="translate(296.533203 0)"/>
      <use xlink:href="#DejaVuSans-72" transform="translate(358.056641 0)"/>
      <use xlink:href="#DejaVuSans-69" transform="translate(399.169922 0)"/>
      <use xlink:href="#DejaVuSans-6f" transform="translate(426.953125 0)"/>
     </g>
    </g>
   </g>
   <g id="text_4">
    <g id="patch_5">
     <path d="M 502.326193 471.374893 
L 597.251193 471.374893 
L 597.251193 461.712393 
L 502.326193 461.712393 
z
" clip-path="url(#p35ffcb3235)" style="fill: #ffffff; opacity: 0.75"/>
    </g>
    <g clip-path="url(#p35ffcb3235)">
     <!-- Guarnición de Luthadel -->
     <g transform="translate(503.286193 468.751143) scale(0.08 -0.08)">
      <defs>
       <path id="DejaVuSans-47" d="M 3809 666 
L 3809 1919 
L 2778 1919 
L 2778 2438 
L 4434 2438 
L 4434 434 
Q 4069 175 3628 42 
Q 3188 -91 2688 -91 
Q 1594 -91 976 548 
Q 359 1188 359 2328 
Q 359 3472 976 4111 
Q 1594 4750 2688 4750 
Q 3144 4750 3555 4637 
Q 3966 4525 4313 4306 
L 4313 3634 
Q 3963 3931 3569 4081 
Q 3175 4231 2741 4231 
Q 1884 4231 1454 3753 
Q 1025 3275 1025 2328 
Q 1025 1384 1454 906 
Q 1884 428 2741 428 
Q 3075 428 3337 486 
Q 3600 544 3809 666 
z
" transform="scale(0.015625)"/>
       <path id="DejaVuSans-75" d="M 544 1381 
L 544 3500 
L 1119 3500 
L 1119 1403 
Q 1119 906 1312 657 
Q 1506 409 1894 409 
Q 2359 409 2629 706 
Q 2900 1003 2900 1516 
L 2900 3500 
L 3475 3500 
L 3475 0 
L 2900 0 
L 2900 538 
Q 2691 219 2414 64 
Q 2138 -91 1772 -91 
Q 1169 -91 856 284 
Q 544 659 544 1381 
z
M 1991 3584 
L 1991 3584 
z
" transform="scale(0.015625)"/>
       <path id="DejaVuSans-4c" d="M 628 4666 
L 1259 4666 
L 1259 531 
L 3531 531 
L 3531 0 
L 628 0 
L 628 4666 
z
" transform="scale(0.015625)"/>
      </defs>
      <use xlink:href="#DejaVuSans-47"/>
      <use xlink:href="#DejaVuSans-75" transform="translate(77.490234 0)"/>
      <use xlink:href="#DejaVuSans-61" transform="translate(140.869141 0)"/>
      <use xlink:href="#DejaVuSans-72" transform="translate(202.148438 0)"/>
      <use xlink:href="#DejaVuSans-6e" transform="translate(241.511719 0)"/>
      <use xlink:href="#DejaVuSans-69" transform="translate(304.890625 0)"/>
      <use xlink:href="#DejaVuSans-63" transform="translate(332.673828 0)"/>
      <use xlink:href="#DejaVuSans-69" transform="translate(387.654297 0)"/>
      <use xlink:href="#DejaVuSans-f3" transform="translate(415.4375 0)"/>
      <use xlink:href="#DejaVuSans-6e" transform="translate(476.619141 0)"/>
      <use xlink:href="#DejaVuSans-20" transform="translate(539.998047 0)"/>
      <use xlink:href="#DejaVuSans-64" transform="translate(571.785156 0)"/>
      <use xlink:href="#DejaVuSans-65" transform="translate(635.261719 0)"/>
      <use xlink:href="#DejaVuSans-20" transform="translate(696.785156 0)"/>
      <use xlink:href="#DejaVuSans-4c" transform="translate(728.572266 0)"/>
      <use xlink:href="#DejaVuSans-75" transform="translate(782.535156 0)"/>
      <use xlink:href="#DejaVuSans-74" transform="translate(845.914062 0)"/>
      <use xlink:href="#DejaVuSans-68" transform="translate(885.123047 0)"/>
      <use xlink:href="#DejaVuSans-61" transform="translate(948.501953 0)"/>
      <use xlink:href="#DejaVuSans-64" transform="translate(1009.78125 0)"/>
      <use xlink:href="#DejaVuSans-65" transform="translate(1073.257812 0)"/>
      <use xlink:href="#DejaVuSans-6c" transform="translate(1134.78125 0)"/>
     </g>
    </g>
   </g>
   <g id="text_5">
    <g id="patch_6">
     <path d="M 570.836957 259.804979 
L 682.609457 259.804979 
L 682.609457 250.142479 
L 570.836957 250.142479 
z
" clip-path="url(#p35ffcb3235)" style="fill: #ffffff; opacity: 0.75"/>
    </g>
    <g clip-path="url(#p35ffcb3235)">
     <!-- suburbios skaa de Luthadel -->
     <g transform="translate(571.796957 257.181229) scale(0.08 -0.08)">
      <defs>
       <path id="DejaVuSans-62" d="M 3116 1747 
Q 3116 2381 2855 2742 
Q 2594 3103 2138 3103 
Q 1681 3103 1420 2742 
Q 1159 2381 1159 1747 
Q 1159 1113 1420 752 
Q 1681 391 2138 391 
Q 2594 391 2855 752 
Q 3116 1113 3116 1747 
z
M 1159 2969 
Q 1341 3281 1617 3432 
Q 1894 3584 2278 3584 
Q 2916 3584 3314 3078 
Q 3713 2572 3713 1747 
Q 3713 922 3314 415 
Q 2916 -91 2278 -91 
Q 1894 -91 1617 61 
Q 1341 213 1159 525 
L 1159 0 
L 581 0 
L 581 4863 
L 1159 4863 
L 1159 2969 
z
" transform="scale(0.015625)"/>
      </defs>
      <use xlink:href="#DejaVuSans-73"/>
      <use xlink:href="#DejaVuSans-75" transform="translate(52.099609 0)"/>
      <use xlink:href="#DejaVuSans-62" transform="translate(115.478516 0)"/>
      <use xlink:href="#DejaVuSans-75" transform="translate(178.955078 0)"/>
      <use xlink:href="#DejaVuSans-72" transform="translate(242.333984 0)"/>
      <use xlink:href="#DejaVuSans-62" transform="translate(283.447266 0)"/>
      <use xlink:href="#DejaVuSans-69" transform="translate(346.923828 0)"/>
      <use xlink:href="#DejaVuSans-6f" transform="translate(374.707031 0)"/>
      <use xlink:href="#DejaVuSans-73" transform="translate(435.888672 0)"/>
      <use xlink:href="#DejaVuSans-20" transform="translate(487.988281 0)"/>
      <use xlink:href="#DejaVuSans-73" transform="translate(519.775391 0)"/>
      <use xlink:href="#DejaVuSans-6b" transform="translate(571.875 0)"/>
      <use xlink:href="#DejaVuSans-61" transform="translate(628.035156 0)"/>
      <use xlink:href="#DejaVuSans-61" transform="translate(689.314453 0)"/>
      <use xlink:href="#DejaVuSans-20" transform="translate(750.59375 0)"/>
      <use xlink:href="#DejaVuSans-64" transform="translate(782.380859 0)"/>
      <use xlink:href="#DejaVuSans-65" transform="translate(845.857422 0)"/>
      <use xlink:href="#DejaVuSans-20" transform="translate(907.380859 0)"/>
      <use xlink:href="#DejaVuSans-4c" transform="translate(939.167969 0)"/>
      <use xlink:href="#DejaVuSans-75" transform="translate(993.130859 0)"/>
      <use xlink:href="#DejaVuSans-74" transform="translate(1056.509766 0)"/>
      <use xlink:href="#DejaVuSans-68" transform="translate(1095.71875 0)"/>
      <use xlink:href="#DejaVuSans-61" transform="translate(1159.097656 0)"/>
      <use xlink:href="#DejaVuSans-64" transform="translate(1220.376953 0)"/>
      <use xlink:href="#DejaVuSans-65" transform="translate(1283.853516 0)"/>
      <use xlink:href="#DejaVuSans-6c" transform="translate(1345.376953 0)"/>
     </g>
    </g>
   </g>
   <g id="text_6">
    <g id="patch_7">
     <path d="M 538.714135 557.926221 
L 618.564135 557.926221 
L 618.564135 548.263721 
L 538.714135 548.263721 
z
" clip-path="url(#p35ffcb3235)" style="fill: #ffffff; opacity: 0.75"/>
    </g>
    <g clip-path="url(#p35ffcb3235)">
     <!-- canal de Luth-Davn -->
     <g transform="translate(539.674135 555.302471) scale(0.08 -0.08)">
      <defs>
       <path id="DejaVuSans-2d" d="M 313 2009 
L 1997 2009 
L 1997 1497 
L 313 1497 
L 313 2009 
z
" transform="scale(0.015625)"/>
       <path id="DejaVuSans-44" d="M 1259 4147 
L 1259 519 
L 2022 519 
Q 2988 519 3436 956 
Q 3884 1394 3884 2338 
Q 3884 3275 3436 3711 
Q 2988 4147 2022 4147 
L 1259 4147 
z
M 628 4666 
L 1925 4666 
Q 3281 4666 3915 4102 
Q 4550 3538 4550 2338 
Q 4550 1131 3912 565 
Q 3275 0 1925 0 
L 628 0 
L 628 4666 
z
" transform="scale(0.015625)"/>
       <path id="DejaVuSans-76" d="M 191 3500 
L 800 3500 
L 1894 563 
L 2988 3500 
L 3597 3500 
L 2284 0 
L 1503 0 
L 191 3500 
z
" transform="scale(0.015625)"/>
      </defs>
      <use xlink:href="#DejaVuSans-63"/>
      <use xlink:href="#DejaVuSans-61" transform="translate(54.980469 0)"/>
      <use xlink:href="#DejaVuSans-6e" transform="translate(116.259766 0)"/>
      <use xlink:href="#DejaVuSans-61" transform="translate(179.638672 0)"/>
      <use xlink:href="#DejaVuSans-6c" transform="translate(240.917969 0)"/>
      <use xlink:href="#DejaVuSans-20" transform="translate(268.701172 0)"/>
      <use xlink:href="#DejaVuSans-64" transform="translate(300.488281 0)"/>
      <use xlink:href="#DejaVuSans-65" transform="translate(363.964844 0)"/>
      <use xlink:href="#DejaVuSans-20" transform="translate(425.488281 0)"/>
      <use xlink:href="#DejaVuSans-4c" transform="translate(457.275391 0)"/>
      <use xlink:href="#DejaVuSans-75" transform="translate(511.238281 0)"/>
      <use xlink:href="#DejaVuSans-74" transform="translate(574.617188 0)"/>
      <use xlink:href="#DejaVuSans-68" transform="translate(613.826172 0)"/>
      <use xlink:href="#DejaVuSans-2d" transform="translate(677.205078 0)"/>
      <use xlink:href="#DejaVuSans-44" transform="translate(713.289062 0)"/>
      <use xlink:href="#DejaVuSans-61" transform="translate(790.291016 0)"/>
      <use xlink:href="#DejaVuSans-76" transform="translate(851.570312 0)"/>
      <use xlink:href="#DejaVuSans-6e" transform="translate(910.75 0)"/>
     </g>
    </g>
   </g>
   <g id="text_7">
    <g id="patch_8">
     <path d="M 839.349067 144.403207 
L 933.405317 144.403207 
L 933.405317 134.740707 
L 839.349067 134.740707 
z
" clip-path="url(#p35ffcb3235)" style="fill: #ffffff; opacity: 0.75"/>
    </g>
    <g clip-path="url(#p35ffcb3235)">
     <!-- Cantón de las Finanzas -->
     <g transform="translate(840.309067 141.779457) scale(0.08 -0.08)">
      <defs>
       <path id="DejaVuSans-43" d="M 4122 4306 
L 4122 3641 
Q 3803 3938 3442 4084 
Q 3081 4231 2675 4231 
Q 1875 4231 1450 3742 
Q 1025 3253 1025 2328 
Q 1025 1406 1450 917 
Q 1875 428 2675 428 
Q 3081 428 3442 575 
Q 3803 722 4122 1019 
L 4122 359 
Q 3791 134 3420 21 
Q 3050 -91 2638 -91 
Q 1578 -91 968 557 
Q 359 1206 359 2328 
Q 359 3453 968 4101 
Q 1578 4750 2638 4750 
Q 3056 4750 3426 4639 
Q 3797 4528 4122 4306 
z
" transform="scale(0.015625)"/>
       <path id="DejaVuSans-46" d="M 628 4666 
L 3309 4666 
L 3309 4134 
L 1259 4134 
L 1259 2759 
L 3109 2759 
L 3109 2228 
L 1259 2228 
L 1259 0 
L 628 0 
L 628 4666 
z
" transform="scale(0.015625)"/>
       <path id="DejaVuSans-7a" d="M 353 3500 
L 3084 3500 
L 3084 2975 
L 922 459 
L 3084 459 
L 3084 0 
L 275 0 
L 275 525 
L 2438 3041 
L 353 3041 
L 353 3500 
z
" transform="scale(0.015625)"/>
      </defs>
      <use xlink:href="#DejaVuSans-43"/>
      <use xlink:href="#DejaVuSans-61" transform="translate(69.824219 0)"/>
      <use xlink:href="#DejaVuSans-6e" transform="translate(131.103516 0)"/>
      <use xlink:href="#DejaVuSans-74" transform="translate(194.482422 0)"/>
      <use xlink:href="#DejaVuSans-f3" transform="translate(233.691406 0)"/>
      <use xlink:href="#DejaVuSans-6e" transform="translate(294.873047 0)"/>
      <use xlink:href="#DejaVuSans-20" transform="translate(358.251953 0)"/>
      <use xlink:href="#DejaVuSans-64" transform="translate(390.039062 0)"/>
      <use xlink:href="#DejaVuSans-65" transform="translate(453.515625 0)"/>
      <use xlink:href="#DejaVuSans-20" transform="translate(515.039062 0)"/>
      <use xlink:href="#DejaVuSans-6c" transform="translate(546.826172 0)"/>
      <use xlink:href="#DejaVuSans-61" transform="translate(574.609375 0)"/>
      <use xlink:href="#DejaVuSans-73" transform="translate(635.888672 0)"/>
      <use xlink:href="#DejaVuSans-20" transform="translate(687.988281 0)"/>
      <use xlink:href="#DejaVuSans-46" transform="translate(719.775391 0)"/>
      <use xlink:href="#DejaVuSans-69" transform="translate(770.044922 0)"/>
      <use xlink:href="#DejaVuSans-6e" transform="translate(797.828125 0)"/>
      <use xlink:href="#DejaVuSans-61" transform="translate(861.207031 0)"/>
      <use xlink:href="#DejaVuSans-6e" transform="translate(922.486328 0)"/>
      <use xlink:href="#DejaVuSans-7a" transform="translate(985.865234 0)"/>
      <use xlink:href="#DejaVuSans-61" transform="translate(1038.355469 0)"/>
      <use xlink:href="#DejaVuSans-73" transform="translate(1099.634766 0)"/>
     </g>
    </g>
   </g>
   <g id="text_8">
    <g id="patch_9">
     <path d="M 764.230864 615.627107 
L 835.420864 615.627107 
L 835.420864 605.964607 
L 764.230864 605.964607 
z
" clip-path="url(#p35ffcb3235)" style="fill: #ffffff; opacity: 0.75"/>
    </g>
    <g clip-path="url(#p35ffcb3235)">
     <!-- jardines de Tekiel -->
     <g transform="translate(765.190864 613.003357) scale(0.08 -0.08)">
      <defs>
       <path id="DejaVuSans-6a" d="M 603 3500 
L 1178 3500 
L 1178 -63 
Q 1178 -731 923 -1031 
Q 669 -1331 103 -1331 
L -116 -1331 
L -116 -844 
L 38 -844 
Q 366 -844 484 -692 
Q 603 -541 603 -63 
L 603 3500 
z
M 603 4863 
L 1178 4863 
L 1178 4134 
L 603 4134 
L 603 4863 
z
" transform="scale(0.015625)"/>
       <path id="DejaVuSans-54" d="M -19 4666 
L 3928 4666 
L 3928 4134 
L 2272 4134 
L 2272 0 
L 1638 0 
L 1638 4134 
L -19 4134 
L -19 4666 
z
" transform="scale(0.015625)"/>
      </defs>
      <use xlink:href="#DejaVuSans-6a"/>
      <use xlink:href="#DejaVuSans-61" transform="translate(27.783203 0)"/>
      <use xlink:href="#DejaVuSans-72" transform="translate(89.0625 0)"/>
      <use xlink:href="#DejaVuSans-64" transform="translate(128.425781 0)"/>
      <use xlink:href="#DejaVuSans-69" transform="translate(191.902344 0)"/>
      <use xlink:href="#DejaVuSans-6e" transform="translate(219.685547 0)"/>
      <use xlink:href="#DejaVuSans-65" transform="translate(283.064453 0)"/>
      <use xlink:href="#DejaVuSans-73" transform="translate(344.587891 0)"/>
      <use xlink:href="#DejaVuSans-20" transform="translate(396.6875 0)"/>
      <use xlink:href="#DejaVuSans-64" transform="translate(428.474609 0)"/>
      <use xlink:href="#DejaVuSans-65" transform="translate(491.951172 0)"/>
      <use xlink:href="#DejaVuSans-20" transform="translate(553.474609 0)"/>
      <use xlink:href="#DejaVuSans-54" transform="translate(585.261719 0)"/>
      <use xlink:href="#DejaVuSans-65" transform="translate(629.345703 0)"/>
      <use xlink:href="#DejaVuSans-6b" transform="translate(690.869141 0)"/>
      <use xlink:href="#DejaVuSans-69" transform="translate(748.779297 0)"/>
      <use xlink:href="#DejaVuSans-65" transform="translate(776.5625 0)"/>
      <use xlink:href="#DejaVuSans-6c" transform="translate(838.085938 0)"/>
     </g>
    </g>
   </g>
   <g id="text_9">
    <g id="patch_10">
     <path d="M 506.456878 144.403207 
L 573.886878 144.403207 
L 573.886878 134.740707 
L 506.456878 134.740707 
z
" clip-path="url(#p35ffcb3235)" style="fill: #ffffff; opacity: 0.75"/>
    </g>
    <g clip-path="url(#p35ffcb3235)">
     <!-- Torreón de Lekal -->
     <g transform="translate(507.416878 141.779457) scale(0.08 -0.08)">
      <use xlink:href="#DejaVuSans-54"/>
      <use xlink:href="#DejaVuSans-6f" transform="translate(44.083984 0)"/>
      <use xlink:href="#DejaVuSans-72" transform="translate(105.265625 0)"/>
      <use xlink:href="#DejaVuSans-72" transform="translate(144.628906 0)"/>
      <use xlink:href="#DejaVuSans-65" transform="translate(183.492188 0)"/>
      <use xlink:href="#DejaVuSans-f3" transform="translate(245.015625 0)"/>
      <use xlink:href="#DejaVuSans-6e" transform="translate(306.197266 0)"/>
      <use xlink:href="#DejaVuSans-20" transform="translate(369.576172 0)"/>
      <use xlink:href="#DejaVuSans-64" transform="translate(401.363281 0)"/>
      <use xlink:href="#DejaVuSans-65" transform="translate(464.839844 0)"/>
      <use xlink:href="#DejaVuSans-20" transform="translate(526.363281 0)"/>
      <use xlink:href="#DejaVuSans-4c" transform="translate(558.150391 0)"/>
      <use xlink:href="#DejaVuSans-65" transform="translate(612.113281 0)"/>
      <use xlink:href="#DejaVuSans-6b" transform="translate(673.636719 0)"/>
      <use xlink:href="#DejaVuSans-61" transform="translate(729.796875 0)"/>
      <use xlink:href="#DejaVuSans-6c" transform="translate(791.076172 0)"/>
     </g>
    </g>
   </g>
   <g id="text_10">
    <g id="patch_11">
     <path d="M 673.744535 259.804979 
L 752.804535 259.804979 
L 752.804535 250.142479 
L 673.744535 250.142479 
z
" clip-path="url(#p35ffcb3235)" style="fill: #ffffff; opacity: 0.75"/>
    </g>
    <g clip-path="url(#p35ffcb3235)">
     <!-- Torreón de Erikeller -->
     <g transform="translate(674.704535 257.181229) scale(0.08 -0.08)">
      <defs>
       <path id="DejaVuSans-45" d="M 628 4666 
L 3578 4666 
L 3578 4134 
L 1259 4134 
L 1259 2753 
L 3481 2753 
L 3481 2222 
L 1259 2222 
L 1259 531 
L 3634 531 
L 3634 0 
L 628 0 
L 628 4666 
z
" transform="scale(0.015625)"/>
      </defs>
      <use xlink:href="#DejaVuSans-54"/>
      <use xlink:href="#DejaVuSans-6f" transform="translate(44.083984 0)"/>
      <use xlink:href="#DejaVuSans-72" transform="translate(105.265625 0)"/>
      <use xlink:href="#DejaVuSans-72" transform="translate(144.628906 0)"/>
      <use xlink:href="#DejaVuSans-65" transform="translate(183.492188 0)"/>
      <use xlink:href="#DejaVuSans-f3" transform="translate(245.015625 0)"/>
      <use xlink:href="#DejaVuSans-6e" transform="translate(306.197266 0)"/>
      <use xlink:href="#DejaVuSans-20" transform="translate(369.576172 0)"/>
      <use xlink:href="#DejaVuSans-64" transform="translate(401.363281 0)"/>
      <use xlink:href="#DejaVuSans-65" transform="translate(464.839844 0)"/>
      <use xlink:href="#DejaVuSans-20" transform="translate(526.363281 0)"/>
      <use xlink:href="#DejaVuSans-45" transform="translate(558.150391 0)"/>
      <use xlink:href="#DejaVuSans-72" transform="translate(621.333984 0)"/>
      <use xlink:href="#DejaVuSans-69" transform="translate(662.447266 0)"/>
      <use xlink:href="#DejaVuSans-6b" transform="translate(690.230469 0)"/>
      <use xlink:href="#DejaVuSans-65" transform="translate(744.515625 0)"/>
      <use xlink:href="#DejaVuSans-6c" transform="translate(806.039062 0)"/>
      <use xlink:href="#DejaVuSans-6c" transform="translate(833.822266 0)"/>
      <use xlink:href="#DejaVuSans-65" transform="translate(861.605469 0)"/>
      <use xlink:href="#DejaVuSans-72" transform="translate(923.128906 0)"/>
     </g>
    </g>
   </g>
   <g id="text_11">
    <g id="patch_12">
     <path d="M 423.707425 144.403207 
L 483.533675 144.403207 
L 483.533675 134.740707 
L 423.707425 134.740707 
z
" clip-path="url(#p35ffcb3235)" style="fill: #ffffff; opacity: 0.75"/>
    </g>
    <g clip-path="url(#p35ffcb3235)">
     <!-- taller de Clubs -->
     <g transform="translate(424.667425 141.779457) scale(0.08 -0.08)">
      <use xlink:href="#DejaVuSans-74"/>
      <use xlink:href="#DejaVuSans-61" transform="translate(39.208984 0)"/>
      <use xlink:href="#DejaVuSans-6c" transform="translate(100.488281 0)"/>
      <use xlink:href="#DejaVuSans-6c" transform="translate(128.271484 0)"/>
      <use xlink:href="#DejaVuSans-65" transform="translate(156.054688 0)"/>
      <use xlink:href="#DejaVuSans-72" transform="translate(217.578125 0)"/>
      <use xlink:href="#DejaVuSans-20" transform="translate(258.691406 0)"/>
      <use xlink:href="#DejaVuSans-64" transform="translate(290.478516 0)"/>
      <use xlink:href="#DejaVuSans-65" transform="translate(353.955078 0)"/>
      <use xlink:href="#DejaVuSans-20" transform="translate(415.478516 0)"/>
      <use xlink:href="#DejaVuSans-43" transform="translate(447.265625 0)"/>
      <use xlink:href="#DejaVuSans-6c" transform="translate(517.089844 0)"/>
      <use xlink:href="#DejaVuSans-75" transform="translate(544.873047 0)"/>
      <use xlink:href="#DejaVuSans-62" transform="translate(608.251953 0)"/>
      <use xlink:href="#DejaVuSans-73" transform="translate(671.728516 0)"/>
     </g>
    </g>
   </g>
   <g id="text_12">
    <g id="patch_13">
     <path d="M 302.514403 519.458964 
L 373.923153 519.458964 
L 373.923153 509.796464 
L 302.514403 509.796464 
z
" clip-path="url(#p35ffcb3235)" style="fill: #ffffff; opacity: 0.75"/>
    </g>
    <g clip-path="url(#p35ffcb3235)">
     <!-- Torreón de Elariel -->
     <g transform="translate(303.474403 516.835214) scale(0.08 -0.08)">
      <use xlink:href="#DejaVuSans-54"/>
      <use xlink:href="#DejaVuSans-6f" transform="translate(44.083984 0)"/>
      <use xlink:href="#DejaVuSans-72" transform="translate(105.265625 0)"/>
      <use xlink:href="#DejaVuSans-72" transform="translate(144.628906 0)"/>
      <use xlink:href="#DejaVuSans-65" transform="translate(183.492188 0)"/>
      <use xlink:href="#DejaVuSans-f3" transform="translate(245.015625 0)"/>
      <use xlink:href="#DejaVuSans-6e" transform="translate(306.197266 0)"/>
      <use xlink:href="#DejaVuSans-20" transform="translate(369.576172 0)"/>
      <use xlink:href="#DejaVuSans-64" transform="translate(401.363281 0)"/>
      <use xlink:href="#DejaVuSans-65" transform="translate(464.839844 0)"/>
      <use xlink:href="#DejaVuSans-20" transform="translate(526.363281 0)"/>
      <use xlink:href="#DejaVuSans-45" transform="translate(558.150391 0)"/>
      <use xlink:href="#DejaVuSans-6c" transform="translate(621.333984 0)"/>
      <use xlink:href="#DejaVuSans-61" transform="translate(649.117188 0)"/>
      <use xlink:href="#DejaVuSans-72" transform="translate(710.396484 0)"/>
      <use xlink:href="#DejaVuSans-69" transform="translate(751.509766 0)"/>
      <use xlink:href="#DejaVuSans-65" transform="translate(779.292969 0)"/>
      <use xlink:href="#DejaVuSans-6c" transform="translate(840.816406 0)"/>
     </g>
    </g>
   </g>
   <g id="text_13">
    <g id="patch_14">
     <path d="M 722.775482 442.68445 
L 799.941732 442.68445 
L 799.941732 432.70195 
L 722.775482 432.70195 
z
" clip-path="url(#p35ffcb3235)" style="fill: #ffffff; opacity: 0.75"/>
    </g>
    <g clip-path="url(#p35ffcb3235)">
     <!-- Torreón de Hasting -->
     <g transform="translate(723.735482 440.0607) scale(0.08 -0.08)">
      <defs>
       <path id="DejaVuSans-48" d="M 628 4666 
L 1259 4666 
L 1259 2753 
L 3553 2753 
L 3553 4666 
L 4184 4666 
L 4184 0 
L 3553 0 
L 3553 2222 
L 1259 2222 
L 1259 0 
L 628 0 
L 628 4666 
z
" transform="scale(0.015625)"/>
       <path id="DejaVuSans-67" d="M 2906 1791 
Q 2906 2416 2648 2759 
Q 2391 3103 1925 3103 
Q 1463 3103 1205 2759 
Q 947 2416 947 1791 
Q 947 1169 1205 825 
Q 1463 481 1925 481 
Q 2391 481 2648 825 
Q 2906 1169 2906 1791 
z
M 3481 434 
Q 3481 -459 3084 -895 
Q 2688 -1331 1869 -1331 
Q 1566 -1331 1297 -1286 
Q 1028 -1241 775 -1147 
L 775 -588 
Q 1028 -725 1275 -790 
Q 1522 -856 1778 -856 
Q 2344 -856 2625 -561 
Q 2906 -266 2906 331 
L 2906 616 
Q 2728 306 2450 153 
Q 2172 0 1784 0 
Q 1141 0 747 490 
Q 353 981 353 1791 
Q 353 2603 747 3093 
Q 1141 3584 1784 3584 
Q 2172 3584 2450 3431 
Q 2728 3278 2906 2969 
L 2906 3500 
L 3481 3500 
L 3481 434 
z
" transform="scale(0.015625)"/>
      </defs>
      <use xlink:href="#DejaVuSans-54"/>
      <use xlink:href="#DejaVuSans-6f" transform="translate(44.083984 0)"/>
      <use xlink:href="#DejaVuSans-72" transform="translate(105.265625 0)"/>
      <use xlink:href="#DejaVuSans-72" transform="translate(144.628906 0)"/>
      <use xlink:href="#DejaVuSans-65" transform="translate(183.492188 0)"/>
      <use xlink:href="#DejaVuSans-f3" transform="translate(245.015625 0)"/>
      <use xlink:href="#DejaVuSans-6e" transform="translate(306.197266 0)"/>
      <use xlink:href="#DejaVuSans-20" transform="translate(369.576172 0)"/>
      <use xlink:href="#DejaVuSans-64" transform="translate(401.363281 0)"/>
      <use xlink:href="#DejaVuSans-65" transform="translate(464.839844 0)"/>
      <use xlink:href="#DejaVuSans-20" transform="translate(526.363281 0)"/>
      <use xlink:href="#DejaVuSans-48" transform="translate(558.150391 0)"/>
      <use xlink:href="#DejaVuSans-61" transform="translate(633.345703 0)"/>
      <use xlink:href="#DejaVuSans-73" transform="translate(694.625 0)"/>
      <use xlink:href="#DejaVuSans-74" transform="translate(746.724609 0)"/>
      <use xlink:href="#DejaVuSans-69" transform="translate(785.933594 0)"/>
      <use xlink:href="#DejaVuSans-6e" transform="translate(813.716797 0)"/>
      <use xlink:href="#DejaVuSans-67" transform="translate(877.095703 0)"/>
     </g>
    </g>
   </g>
   <g id="text_14">
    <g id="patch_15">
     <path d="M 734.402357 529.075778 
L 788.314857 529.075778 
L 788.314857 519.413278 
L 734.402357 519.413278 
z
" clip-path="url(#p35ffcb3235)" style="fill: #ffffff; opacity: 0.75"/>
    </g>
    <g clip-path="url(#p35ffcb3235)">
     <!-- Casa Renoux -->
     <g transform="translate(735.362357 526.452028) scale(0.08 -0.08)">
      <defs>
       <path id="DejaVuSans-52" d="M 2841 2188 
Q 3044 2119 3236 1894 
Q 3428 1669 3622 1275 
L 4263 0 
L 3584 0 
L 2988 1197 
Q 2756 1666 2539 1819 
Q 2322 1972 1947 1972 
L 1259 1972 
L 1259 0 
L 628 0 
L 628 4666 
L 2053 4666 
Q 2853 4666 3247 4331 
Q 3641 3997 3641 3322 
Q 3641 2881 3436 2590 
Q 3231 2300 2841 2188 
z
M 1259 4147 
L 1259 2491 
L 2053 2491 
Q 2509 2491 2742 2702 
Q 2975 2913 2975 3322 
Q 2975 3731 2742 3939 
Q 2509 4147 2053 4147 
L 1259 4147 
z
" transform="scale(0.015625)"/>
      </defs>
      <use xlink:href="#DejaVuSans-43"/>
      <use xlink:href="#DejaVuSans-61" transform="translate(69.824219 0)"/>
      <use xlink:href="#DejaVuSans-73" transform="translate(131.103516 0)"/>
      <use xlink:href="#DejaVuSans-61" transform="translate(183.203125 0)"/>
      <use xlink:href="#DejaVuSans-20" transform="translate(244.482422 0)"/>
      <use xlink:href="#DejaVuSans-52" transform="translate(276.269531 0)"/>
      <use xlink:href="#DejaVuSans-65" transform="translate(341.251953 0)"/>
      <use xlink:href="#DejaVuSans-6e" transform="translate(402.775391 0)"/>
      <use xlink:href="#DejaVuSans-6f" transform="translate(466.154297 0)"/>
      <use xlink:href="#DejaVuSans-75" transform="translate(527.335938 0)"/>
      <use xlink:href="#DejaVuSans-78" transform="translate(590.714844 0)"/>
     </g>
    </g>
   </g>
   <g id="text_15">
    <g id="patch_16">
     <path d="M 856.981567 615.627107 
L 915.772817 615.627107 
L 915.772817 605.964607 
L 856.981567 605.964607 
z
" clip-path="url(#p35ffcb3235)" style="fill: #ffffff; opacity: 0.75"/>
    </g>
    <g clip-path="url(#p35ffcb3235)">
     <!-- Casa Geffenry -->
     <g transform="translate(857.941567 613.003357) scale(0.08 -0.08)">
      <defs>
       <path id="DejaVuSans-66" d="M 2375 4863 
L 2375 4384 
L 1825 4384 
Q 1516 4384 1395 4259 
Q 1275 4134 1275 3809 
L 1275 3500 
L 2222 3500 
L 2222 3053 
L 1275 3053 
L 1275 0 
L 697 0 
L 697 3053 
L 147 3053 
L 147 3500 
L 697 3500 
L 697 3744 
Q 697 4328 969 4595 
Q 1241 4863 1831 4863 
L 2375 4863 
z
" transform="scale(0.015625)"/>
       <path id="DejaVuSans-79" d="M 2059 -325 
Q 1816 -950 1584 -1140 
Q 1353 -1331 966 -1331 
L 506 -1331 
L 506 -850 
L 844 -850 
Q 1081 -850 1212 -737 
Q 1344 -625 1503 -206 
L 1606 56 
L 191 3500 
L 800 3500 
L 1894 763 
L 2988 3500 
L 3597 3500 
L 2059 -325 
z
" transform="scale(0.015625)"/>
      </defs>
      <use xlink:href="#DejaVuSans-43"/>
      <use xlink:href="#DejaVuSans-61" transform="translate(69.824219 0)"/>
      <use xlink:href="#DejaVuSans-73" transform="translate(131.103516 0)"/>
      <use xlink:href="#DejaVuSans-61" transform="translate(183.203125 0)"/>
      <use xlink:href="#DejaVuSans-20" transform="translate(244.482422 0)"/>
      <use xlink:href="#DejaVuSans-47" transform="translate(276.269531 0)"/>
      <use xlink:href="#DejaVuSans-65" transform="translate(353.759766 0)"/>
      <use xlink:href="#DejaVuSans-66" transform="translate(415.283203 0)"/>
      <use xlink:href="#DejaVuSans-66" transform="translate(450.488281 0)"/>
      <use xlink:href="#DejaVuSans-65" transform="translate(485.693359 0)"/>
      <use xlink:href="#DejaVuSans-6e" transform="translate(547.216797 0)"/>
      <use xlink:href="#DejaVuSans-72" transform="translate(610.595703 0)"/>
      <use xlink:href="#DejaVuSans-79" transform="translate(651.708984 0)"/>
     </g>
    </g>
   </g>
   <g id="text_16">
    <g id="patch_17">
     <path d="M 510.961193 346.356307 
L 588.616193 346.356307 
L 588.616193 336.693807 
L 510.961193 336.693807 
z
" clip-path="url(#p35ffcb3235)" style="fill: #ffffff; opacity: 0.75"/>
    </g>
    <g clip-path="url(#p35ffcb3235)">
     <!-- Torreón de Venture -->
     <g transform="translate(511.921193 343.732557) scale(0.08 -0.08)">
      <defs>
       <path id="DejaVuSans-56" d="M 1831 0 
L 50 4666 
L 709 4666 
L 2188 738 
L 3669 4666 
L 4325 4666 
L 2547 0 
L 1831 0 
z
" transform="scale(0.015625)"/>
      </defs>
      <use xlink:href="#DejaVuSans-54"/>
      <use xlink:href="#DejaVuSans-6f" transform="translate(44.083984 0)"/>
      <use xlink:href="#DejaVuSans-72" transform="translate(105.265625 0)"/>
      <use xlink:href="#DejaVuSans-72" transform="translate(144.628906 0)"/>
      <use xlink:href="#DejaVuSans-65" transform="translate(183.492188 0)"/>
      <use xlink:href="#DejaVuSans-f3" transform="translate(245.015625 0)"/>
      <use xlink:href="#DejaVuSans-6e" transform="translate(306.197266 0)"/>
      <use xlink:href="#DejaVuSans-20" transform="translate(369.576172 0)"/>
      <use xlink:href="#DejaVuSans-64" transform="translate(401.363281 0)"/>
      <use xlink:href="#DejaVuSans-65" transform="translate(464.839844 0)"/>
      <use xlink:href="#DejaVuSans-20" transform="translate(526.363281 0)"/>
      <use xlink:href="#DejaVuSans-56" transform="translate(558.150391 0)"/>
      <use xlink:href="#DejaVuSans-65" transform="translate(618.808594 0)"/>
      <use xlink:href="#DejaVuSans-6e" transform="translate(680.332031 0)"/>
      <use xlink:href="#DejaVuSans-74" transform="translate(743.710938 0)"/>
      <use xlink:href="#DejaVuSans-75" transform="translate(782.919922 0)"/>
      <use xlink:href="#DejaVuSans-72" transform="translate(846.298828 0)"/>
      <use xlink:href="#DejaVuSans-65" transform="translate(885.162109 0)"/>
     </g>
    </g>
   </g>
   <g id="text_17">
    <g id="patch_18">
     <path d="M 412.5568 317.505864 
L 494.6843 317.505864 
L 494.6843 307.843364 
L 412.5568 307.843364 
z
" clip-path="url(#p35ffcb3235)" style="fill: #ffffff; opacity: 0.75"/>
    </g>
    <g clip-path="url(#p35ffcb3235)">
     <!-- muralla de Luthadel -->
     <g transform="translate(413.5168 314.882114) scale(0.08 -0.08)">
      <defs>
       <path id="DejaVuSans-6d" d="M 3328 2828 
Q 3544 3216 3844 3400 
Q 4144 3584 4550 3584 
Q 5097 3584 5394 3201 
Q 5691 2819 5691 2113 
L 5691 0 
L 5113 0 
L 5113 2094 
Q 5113 2597 4934 2840 
Q 4756 3084 4391 3084 
Q 3944 3084 3684 2787 
Q 3425 2491 3425 1978 
L 3425 0 
L 2847 0 
L 2847 2094 
Q 2847 2600 2669 2842 
Q 2491 3084 2119 3084 
Q 1678 3084 1418 2786 
Q 1159 2488 1159 1978 
L 1159 0 
L 581 0 
L 581 3500 
L 1159 3500 
L 1159 2956 
Q 1356 3278 1631 3431 
Q 1906 3584 2284 3584 
Q 2666 3584 2933 3390 
Q 3200 3197 3328 2828 
z
" transform="scale(0.015625)"/>
      </defs>
      <use xlink:href="#DejaVuSans-6d"/>
      <use xlink:href="#DejaVuSans-75" transform="translate(97.412109 0)"/>
      <use xlink:href="#DejaVuSans-72" transform="translate(160.791016 0)"/>
      <use xlink:href="#DejaVuSans-61" transform="translate(201.904297 0)"/>
      <use xlink:href="#DejaVuSans-6c" transform="translate(263.183594 0)"/>
      <use xlink:href="#DejaVuSans-6c" transform="translate(290.966797 0)"/>
      <use xlink:href="#DejaVuSans-61" transform="translate(318.75 0)"/>
      <use xlink:href="#DejaVuSans-20" transform="translate(380.029297 0)"/>
      <use xlink:href="#DejaVuSans-64" transform="translate(411.816406 0)"/>
      <use xlink:href="#DejaVuSans-65" transform="translate(475.292969 0)"/>
      <use xlink:href="#DejaVuSans-20" transform="translate(536.816406 0)"/>
      <use xlink:href="#DejaVuSans-4c" transform="translate(568.603516 0)"/>
      <use xlink:href="#DejaVuSans-75" transform="translate(622.566406 0)"/>
      <use xlink:href="#DejaVuSans-74" transform="translate(685.945312 0)"/>
      <use xlink:href="#DejaVuSans-68" transform="translate(725.154297 0)"/>
      <use xlink:href="#DejaVuSans-61" transform="translate(788.533203 0)"/>
      <use xlink:href="#DejaVuSans-64" transform="translate(849.8125 0)"/>
      <use xlink:href="#DejaVuSans-65" transform="translate(913.289062 0)"/>
      <use xlink:href="#DejaVuSans-6c" transform="translate(974.8125 0)"/>
     </g>
    </g>
   </g>
   <g id="text_18">
    <g id="patch_19">
     <path d="M 332.558596 134.786393 
L 401.579846 134.786393 
L 401.579846 125.123893 
L 332.558596 125.123893 
z
" clip-path="url(#p35ffcb3235)" style="fill: #ffffff; opacity: 0.75"/>
    </g>
    <g clip-path="url(#p35ffcb3235)">
     <!-- Torreón de Tekiel -->
     <g transform="translate(333.518596 132.162643) scale(0.08 -0.08)">
      <use xlink:href="#DejaVuSans-54"/>
      <use xlink:href="#DejaVuSans-6f" transform="translate(44.083984 0)"/>
      <use xlink:href="#DejaVuSans-72" transform="translate(105.265625 0)"/>
      <use xlink:href="#DejaVuSans-72" transform="translate(144.628906 0)"/>
      <use xlink:href="#DejaVuSans-65" transform="translate(183.492188 0)"/>
      <use xlink:href="#DejaVuSans-f3" transform="translate(245.015625 0)"/>
      <use xlink:href="#DejaVuSans-6e" transform="translate(306.197266 0)"/>
      <use xlink:href="#DejaVuSans-20" transform="translate(369.576172 0)"/>
      <use xlink:href="#DejaVuSans-64" transform="translate(401.363281 0)"/>
      <use xlink:href="#DejaVuSans-65" transform="translate(464.839844 0)"/>
      <use xlink:href="#DejaVuSans-20" transform="translate(526.363281 0)"/>
      <use xlink:href="#DejaVuSans-54" transform="translate(558.150391 0)"/>
      <use xlink:href="#DejaVuSans-65" transform="translate(602.234375 0)"/>
      <use xlink:href="#DejaVuSans-6b" transform="translate(663.757812 0)"/>
      <use xlink:href="#DejaVuSans-69" transform="translate(721.667969 0)"/>
      <use xlink:href="#DejaVuSans-65" transform="translate(749.451172 0)"/>
      <use xlink:href="#DejaVuSans-6c" transform="translate(810.974609 0)"/>
     </g>
    </g>
   </g>
   <g id="text_19">
    <g id="patch_20">
     <path d="M 712.302982 356.133121 
L 810.414232 356.133121 
L 810.414232 346.150621 
L 712.302982 346.150621 
z
" clip-path="url(#p35ffcb3235)" style="fill: #ffffff; opacity: 0.75"/>
    </g>
    <g clip-path="url(#p35ffcb3235)">
     <!-- Cantón de la Inquisición -->
     <g transform="translate(713.262982 353.509371) scale(0.08 -0.08)">
      <defs>
       <path id="DejaVuSans-49" d="M 628 4666 
L 1259 4666 
L 1259 0 
L 628 0 
L 628 4666 
z
" transform="scale(0.015625)"/>
       <path id="DejaVuSans-71" d="M 947 1747 
Q 947 1113 1208 752 
Q 1469 391 1925 391 
Q 2381 391 2643 752 
Q 2906 1113 2906 1747 
Q 2906 2381 2643 2742 
Q 2381 3103 1925 3103 
Q 1469 3103 1208 2742 
Q 947 2381 947 1747 
z
M 2906 525 
Q 2725 213 2448 61 
Q 2172 -91 1784 -91 
Q 1150 -91 751 415 
Q 353 922 353 1747 
Q 353 2572 751 3078 
Q 1150 3584 1784 3584 
Q 2172 3584 2448 3432 
Q 2725 3281 2906 2969 
L 2906 3500 
L 3481 3500 
L 3481 -1331 
L 2906 -1331 
L 2906 525 
z
" transform="scale(0.015625)"/>
      </defs>
      <use xlink:href="#DejaVuSans-43"/>
      <use xlink:href="#DejaVuSans-61" transform="translate(69.824219 0)"/>
      <use xlink:href="#DejaVuSans-6e" transform="translate(131.103516 0)"/>
      <use xlink:href="#DejaVuSans-74" transform="translate(194.482422 0)"/>
      <use xlink:href="#DejaVuSans-f3" transform="translate(233.691406 0)"/>
      <use xlink:href="#DejaVuSans-6e" transform="translate(294.873047 0)"/>
      <use xlink:href="#DejaVuSans-20" transform="translate(358.251953 0)"/>
      <use xlink:href="#DejaVuSans-64" transform="translate(390.039062 0)"/>
      <use xlink:href="#DejaVuSans-65" transform="translate(453.515625 0)"/>
      <use xlink:href="#DejaVuSans-20" transform="translate(515.039062 0)"/>
      <use xlink:href="#DejaVuSans-6c" transform="translate(546.826172 0)"/>
      <use xlink:href="#DejaVuSans-61" transform="translate(574.609375 0)"/>
      <use xlink:href="#DejaVuSans-20" transform="translate(635.888672 0)"/>
      <use xlink:href="#DejaVuSans-49" transform="translate(667.675781 0)"/>
      <use xlink:href="#DejaVuSans-6e" transform="translate(697.167969 0)"/>
      <use xlink:href="#DejaVuSans-71" transform="translate(760.546875 0)"/>
      <use xlink:href="#DejaVuSans-75" transform="translate(824.023438 0)"/>
      <use xlink:href="#DejaVuSans-69" transform="translate(887.402344 0)"/>
      <use xlink:href="#DejaVuSans-73" transform="translate(915.185547 0)"/>
      <use xlink:href="#DejaVuSans-69" transform="translate(967.285156 0)"/>
      <use xlink:href="#DejaVuSans-63" transform="translate(995.068359 0)"/>
      <use xlink:href="#DejaVuSans-69" transform="translate(1050.048828 0)"/>
      <use xlink:href="#DejaVuSans-f3" transform="translate(1077.832031 0)"/>
      <use xlink:href="#DejaVuSans-6e" transform="translate(1139.013672 0)"/>
     </g>
    </g>
   </g>
   <g id="text_20">
    <g id="patch_21">
     <path d="M 300.588153 259.804979 
L 375.849403 259.804979 
L 375.849403 250.142479 
L 300.588153 250.142479 
z
" clip-path="url(#p35ffcb3235)" style="fill: #ffffff; opacity: 0.75"/>
    </g>
    <g clip-path="url(#p35ffcb3235)">
     <!-- plaza de la Fuente -->
     <g transform="translate(301.548153 257.181229) scale(0.08 -0.08)">
      <defs>
       <path id="DejaVuSans-70" d="M 1159 525 
L 1159 -1331 
L 581 -1331 
L 581 3500 
L 1159 3500 
L 1159 2969 
Q 1341 3281 1617 3432 
Q 1894 3584 2278 3584 
Q 2916 3584 3314 3078 
Q 3713 2572 3713 1747 
Q 3713 922 3314 415 
Q 2916 -91 2278 -91 
Q 1894 -91 1617 61 
Q 1341 213 1159 525 
z
M 3116 1747 
Q 3116 2381 2855 2742 
Q 2594 3103 2138 3103 
Q 1681 3103 1420 2742 
Q 1159 2381 1159 1747 
Q 1159 1113 1420 752 
Q 1681 391 2138 391 
Q 2594 391 2855 752 
Q 3116 1113 3116 1747 
z
" transform="scale(0.015625)"/>
      </defs>
      <use xlink:href="#DejaVuSans-70"/>
      <use xlink:href="#DejaVuSans-6c" transform="translate(63.476562 0)"/>
      <use xlink:href="#DejaVuSans-61" transform="translate(91.259766 0)"/>
      <use xlink:href="#DejaVuSans-7a" transform="translate(152.539062 0)"/>
      <use xlink:href="#DejaVuSans-61" transform="translate(205.029297 0)"/>
      <use xlink:href="#DejaVuSans-20" transform="translate(266.308594 0)"/>
      <use xlink:href="#DejaVuSans-64" transform="translate(298.095703 0)"/>
      <use xlink:href="#DejaVuSans-65" transform="translate(361.572266 0)"/>
      <use xlink:href="#DejaVuSans-20" transform="translate(423.095703 0)"/>
      <use xlink:href="#DejaVuSans-6c" transform="translate(454.882812 0)"/>
      <use xlink:href="#DejaVuSans-61" transform="translate(482.666016 0)"/>
      <use xlink:href="#DejaVuSans-20" transform="translate(543.945312 0)"/>
      <use xlink:href="#DejaVuSans-46" transform="translate(575.732422 0)"/>
      <use xlink:href="#DejaVuSans-75" transform="translate(627.751953 0)"/>
      <use xlink:href="#DejaVuSans-65" transform="translate(691.130859 0)"/>
      <use xlink:href="#DejaVuSans-6e" transform="translate(752.654297 0)"/>
      <use xlink:href="#DejaVuSans-74" transform="translate(816.033203 0)"/>
      <use xlink:href="#DejaVuSans-65" transform="translate(855.242188 0)"/>
     </g>
    </g>
   </g>
   <g id="text_21">
    <g id="patch_22">
     <path d="M 438.808614 432.907636 
L 487.666114 432.907636 
L 487.666114 423.245136 
L 438.808614 423.245136 
z
" clip-path="url(#p35ffcb3235)" style="fill: #ffffff; opacity: 0.75"/>
    </g>
    <g clip-path="url(#p35ffcb3235)">
     <!-- Casa Elariel -->
     <g transform="translate(439.768614 430.283886) scale(0.08 -0.08)">
      <use xlink:href="#DejaVuSans-43"/>
      <use xlink:href="#DejaVuSans-61" transform="translate(69.824219 0)"/>
      <use xlink:href="#DejaVuSans-73" transform="translate(131.103516 0)"/>
      <use xlink:href="#DejaVuSans-61" transform="translate(183.203125 0)"/>
      <use xlink:href="#DejaVuSans-20" transform="translate(244.482422 0)"/>
      <use xlink:href="#DejaVuSans-45" transform="translate(276.269531 0)"/>
      <use xlink:href="#DejaVuSans-6c" transform="translate(339.453125 0)"/>
      <use xlink:href="#DejaVuSans-61" transform="translate(367.236328 0)"/>
      <use xlink:href="#DejaVuSans-72" transform="translate(428.515625 0)"/>
      <use xlink:href="#DejaVuSans-69" transform="translate(469.628906 0)"/>
      <use xlink:href="#DejaVuSans-65" transform="translate(497.412109 0)"/>
      <use xlink:href="#DejaVuSans-6c" transform="translate(558.935547 0)"/>
     </g>
    </g>
   </g>
   <g id="text_22">
    <g id="patch_23">
     <path d="M 651.572278 404.057193 
L 698.042278 404.057193 
L 698.042278 394.394693 
L 651.572278 394.394693 
z
" clip-path="url(#p35ffcb3235)" style="fill: #ffffff; opacity: 0.75"/>
    </g>
    <g clip-path="url(#p35ffcb3235)">
     <!-- Casa Tekiel -->
     <g transform="translate(652.532278 401.433443) scale(0.08 -0.08)">
      <use xlink:href="#DejaVuSans-43"/>
      <use xlink:href="#DejaVuSans-61" transform="translate(69.824219 0)"/>
      <use xlink:href="#DejaVuSans-73" transform="translate(131.103516 0)"/>
      <use xlink:href="#DejaVuSans-61" transform="translate(183.203125 0)"/>
      <use xlink:href="#DejaVuSans-20" transform="translate(244.482422 0)"/>
      <use xlink:href="#DejaVuSans-54" transform="translate(276.269531 0)"/>
      <use xlink:href="#DejaVuSans-65" transform="translate(320.353516 0)"/>
      <use xlink:href="#DejaVuSans-6b" transform="translate(381.876953 0)"/>
      <use xlink:href="#DejaVuSans-69" transform="translate(439.787109 0)"/>
      <use xlink:href="#DejaVuSans-65" transform="translate(467.570312 0)"/>
      <use xlink:href="#DejaVuSans-6c" transform="translate(529.09375 0)"/>
     </g>
    </g>
   </g>
   <g id="text_23">
    <g id="patch_24">
     <path d="M 108.799932 557.926221 
L 202.198682 557.926221 
L 202.198682 548.263721 
L 108.799932 548.263721 
z
" clip-path="url(#p35ffcb3235)" style="fill: #ffffff; opacity: 0.75"/>
    </g>
    <g clip-path="url(#p35ffcb3235)">
     <!-- Colina de las Mil Torres -->
     <g transform="translate(109.759932 555.302471) scale(0.08 -0.08)">
      <use xlink:href="#DejaVuSans-43"/>
      <use xlink:href="#DejaVuSans-6f" transform="translate(69.824219 0)"/>
      <use xlink:href="#DejaVuSans-6c" transform="translate(131.005859 0)"/>
      <use xlink:href="#DejaVuSans-69" transform="translate(158.789062 0)"/>
      <use xlink:href="#DejaVuSans-6e" transform="translate(186.572266 0)"/>
      <use xlink:href="#DejaVuSans-61" transform="translate(249.951172 0)"/>
      <use xlink:href="#DejaVuSans-20" transform="translate(311.230469 0)"/>
      <use xlink:href="#DejaVuSans-64" transform="translate(343.017578 0)"/>
      <use xlink:href="#DejaVuSans-65" transform="translate(406.494141 0)"/>
      <use xlink:href="#DejaVuSans-20" transform="translate(468.017578 0)"/>
      <use xlink:href="#DejaVuSans-6c" transform="translate(499.804688 0)"/>
      <use xlink:href="#DejaVuSans-61" transform="translate(527.587891 0)"/>
      <use xlink:href="#DejaVuSans-73" transform="translate(588.867188 0)"/>
      <use xlink:href="#DejaVuSans-20" transform="translate(640.966797 0)"/>
      <use xlink:href="#DejaVuSans-4d" transform="translate(672.753906 0)"/>
      <use xlink:href="#DejaVuSans-69" transform="translate(759.033203 0)"/>
      <use xlink:href="#DejaVuSans-6c" transform="translate(786.816406 0)"/>
      <use xlink:href="#DejaVuSans-20" transform="translate(814.599609 0)"/>
      <use xlink:href="#DejaVuSans-54" transform="translate(846.386719 0)"/>
      <use xlink:href="#DejaVuSans-6f" transform="translate(890.470703 0)"/>
      <use xlink:href="#DejaVuSans-72" transform="translate(951.652344 0)"/>
      <use xlink:href="#DejaVuSans-72" transform="translate(991.015625 0)"/>
      <use xlink:href="#DejaVuSans-65" transform="translate(1029.878906 0)"/>
      <use xlink:href="#DejaVuSans-73" transform="translate(1091.402344 0)"/>
     </g>
    </g>
   </g>
   <g id="text_24">
    <!-- Mapa de Luthadel · CSR=1.000 -->
    <g transform="translate(622.6125 16.318125) scale(0.12 -0.12)">
     <defs>
      <path id="DejaVuSans-b7" d="M 684 2619 
L 1344 2619 
L 1344 1825 
L 684 1825 
L 684 2619 
z
" transform="scale(0.015625)"/>
      <path id="DejaVuSans-3d" d="M 678 2906 
L 4684 2906 
L 4684 2381 
L 678 2381 
L 678 2906 
z
M 678 1631 
L 4684 1631 
L 4684 1100 
L 678 1100 
L 678 1631 
z
" transform="scale(0.015625)"/>
      <path id="DejaVuSans-31" d="M 794 531 
L 1825 531 
L 1825 4091 
L 703 3866 
L 703 4441 
L 1819 4666 
L 2450 4666 
L 2450 531 
L 3481 531 
L 3481 0 
L 794 0 
L 794 531 
z
" transform="scale(0.015625)"/>
      <path id="DejaVuSans-2e" d="M 684 794 
L 1344 794 
L 1344 0 
L 684 0 
L 684 794 
z
" transform="scale(0.015625)"/>
      <path id="DejaVuSans-30" d="M 2034 4250 
Q 1547 4250 1301 3770 
Q 1056 3291 1056 2328 
Q 1056 1369 1301 889 
Q 1547 409 2034 409 
Q 2525 409 2770 889 
Q 3016 1369 3016 2328 
Q 3016 3291 2770 3770 
Q 2525 4250 2034 4250 
z
M 2034 4750 
Q 2819 4750 3233 4129 
Q 3647 3509 3647 2328 
Q 3647 1150 3233 529 
Q 2819 -91 2034 -91 
Q 1250 -91 836 529 
Q 422 1150 422 2328 
Q 422 3509 836 4129 
Q 1250 4750 2034 4750 
z
" transform="scale(0.015625)"/>
     </defs>
     <use xlink:href="#DejaVuSans-4d"/>
     <use xlink:href="#DejaVuSans-61" transform="translate(86.279297 0)"/>
     <use xlink:href="#DejaVuSans-70" transform="translate(147.558594 0)"/>
     <use xlink:href="#DejaVuSans-61" transform="translate(211.035156 0)"/>
     <use xlink:href="#DejaVuSans-20" transform="translate(272.314453 0)"/>
     <use xlink:href="#DejaVuSans-64" transform="translate(304.101562 0)"/>
     <use xlink:href="#DejaVuSans-65" transform="translate(367.578125 0)"/>
     <use xlink:href="#DejaVuSans-20" transform="translate(429.101562 0)"/>
     <use xlink:href="#DejaVuSans-4c" transform="translate(460.888672 0)"/>
     <use xlink:href="#DejaVuSans-75" transform="translate(514.851562 0)"/>
     <use xlink:href="#DejaVuSans-74" transform="translate(578.230469 0)"/>
     <use xlink:href="#DejaVuSans-68" transform="translate(617.439453 0)"/>
     <use xlink:href="#DejaVuSans-61" transform="translate(680.818359 0)"/>
     <use xlink:href="#DejaVuSans-64" transform="translate(742.097656 0)"/>
     <use xlink:href="#DejaVuSans-65" transform="translate(805.574219 0)"/>
     <use xlink:href="#DejaVuSans-6c" transform="translate(867.097656 0)"/>
     <use xlink:href="#DejaVuSans-20" transform="translate(894.880859 0)"/>
     <use xlink:href="#DejaVuSans-b7" transform="translate(926.667969 0)"/>
     <use xlink:href="#DejaVuSans-20" transform="translate(958.455078 0)"/>
     <use xlink:href="#DejaVuSans-43" transform="translate(990.242188 0)"/>
     <use xlink:href="#DejaVuSans-53" transform="translate(1060.066406 0)"/>
     <use xlink:href="#DejaVuSans-52" transform="translate(1123.542969 0)"/>
     <use xlink:href="#DejaVuSans-3d" transform="translate(1193.025391 0)"/>
     <use xlink:href="#DejaVuSans-31" transform="translate(1276.814453 0)"/>
     <use xlink:href="#DejaVuSans-2e" transform="translate(1340.4375 0)"/>
     <use xlink:href="#DejaVuSans-30" transform="translate(1372.224609 0)"/>
     <use xlink:href="#DejaVuSans-30" transform="translate(1435.847656 0)"/>
     <use xlink:href="#DejaVuSans-30" transform="translate(1499.470703 0)"/>
    </g>
    <!-- Verde=satisfechas · Rojo=violadas -->
    <g transform="translate(612.021563 29.7555) scale(0.12 -0.12)">
     <use xlink:href="#DejaVuSans-56"/>
     <use xlink:href="#DejaVuSans-65" transform="translate(60.658203 0)"/>
     <use xlink:href="#DejaVuSans-72" transform="translate(122.181641 0)"/>
     <use xlink:href="#DejaVuSans-64" transform="translate(161.544922 0)"/>
     <use xlink:href="#DejaVuSans-65" transform="translate(225.021484 0)"/>
     <use xlink:href="#DejaVuSans-3d" transform="translate(286.544922 0)"/>
     <use xlink:href="#DejaVuSans-73" transform="translate(370.333984 0)"/>
     <use xlink:href="#DejaVuSans-61" transform="translate(422.433594 0)"/>
     <use xlink:href="#DejaVuSans-74" transform="translate(483.712891 0)"/>
     <use xlink:href="#DejaVuSans-69" transform="translate(522.921875 0)"/>
     <use xlink:href="#DejaVuSans-73" transform="translate(550.705078 0)"/>
     <use xlink:href="#DejaVuSans-66" transform="translate(602.804688 0)"/>
     <use xlink:href="#DejaVuSans-65" transform="translate(638.009766 0)"/>
     <use xlink:href="#DejaVuSans-63" transform="translate(699.533203 0)"/>
     <use xlink:href="#DejaVuSans-68" transform="translate(754.513672 0)"/>
     <use xlink:href="#DejaVuSans-61" transform="translate(817.892578 0)"/>
     <use xlink:href="#DejaVuSans-73" transform="translate(879.171875 0)"/>
     <use xlink:href="#DejaVuSans-20" transform="translate(931.271484 0)"/>
     <use xlink:href="#DejaVuSans-b7" transform="translate(963.058594 0)"/>
     <use xlink:href="#DejaVuSans-20" transform="translate(994.845703 0)"/>
     <use xlink:href="#DejaVuSans-52" transform="translate(1026.632812 0)"/>
     <use xlink:href="#DejaVuSans-6f" transform="translate(1091.615234 0)"/>
     <use xlink:href="#DejaVuSans-6a" transform="translate(1152.796875 0)"/>
     <use xlink:href="#DejaVuSans-6f" transform="translate(1180.580078 0)"/>
     <use xlink:href="#DejaVuSans-3d" transform="translate(1241.761719 0)"/>
     <use xlink:href="#DejaVuSans-76" transform="translate(1325.550781 0)"/>
     <use xlink:href="#DejaVuSans-69" transform="translate(1384.730469 0)"/>
     <use xlink:href="#DejaVuSans-6f" transform="translate(1412.513672 0)"/>
     <use xlink:href="#DejaVuSans-6c" transform="translate(1473.695312 0)"/>
     <use xlink:href="#DejaVuSans-61" transform="translate(1501.478516 0)"/>
     <use xlink:href="#DejaVuSans-64" transform="translate(1562.757812 0)"/>
     <use xlink:href="#DejaVuSans-61" transform="translate(1626.234375 0)"/>
     <use xlink:href="#DejaVuSans-73" transform="translate(1687.513672 0)"/>
    </g>
   </g>
  </g>
 </g>
 <defs>
  <clipPath id="p35ffcb3235">
   <rect x="7.2" y="35.7555" width="1418.4" height="669.24"/>
  </clipPath>
 </defs>
</svg>
